<svg xmlns="http://www.w3.org/2000/svg" viewBox="0 0 198.297 80.468">
  <defs>
    <style>
      .cls-1 {
        fill: #fff;
      }
    </style>
  </defs>
  <g id="Group_7" data-name="Group 7" transform="translate(-150.195 -190.5)">
    <g id="web-design" transform="translate(150.195 190.5)">
      <path id="Path_1" data-name="Path 1" class="cls-1" d="M208,176h24.973v2.775H208Zm0,0" transform="translate(-171.928 -145.478)"/>
      <path id="Path_2" data-name="Path 2" class="cls-1" d="M80,96H91.1v5.549H80Zm0,0" transform="translate(-66.126 -79.352)"/>
      <path id="Path_3" data-name="Path 3" class="cls-1" d="M103.495,0H48V8.324h55.495ZM53.549,5.549H50.775V2.775h2.775Zm5.549,0H56.324V2.775H59.1Zm5.549,0H61.874V2.775h2.775Zm0,0" transform="translate(-39.676)"/>
      <path id="Path_4" data-name="Path 4" class="cls-1" d="M368,176h2.775v8.324H368Zm0,0" transform="translate(-304.181 -145.478)"/>
      <path id="Path_5" data-name="Path 5" class="cls-1" d="M200,96h11.1v5.549H200Zm0,0" transform="translate(-165.316 -79.352)"/>
      <path id="Path_6" data-name="Path 6" class="cls-1" d="M103.495,94.522H74.107L64.073,90.76a3.39,3.39,0,0,1,0-6.347l10.035-3.764h29.387V64H48v44.4h55.495ZM71.585,66.775H88.234v11.1H71.585Zm-20.811,0H67.423v11.1H50.775Zm0,13.874h9.712v2.775H50.775Zm0,5.549H59.1v2.775H50.775Zm0,5.549h9.712v2.775H50.775Zm44.4,13.874h-44.4v-2.775h44.4Zm5.549,0H97.945v-2.775h2.775Zm0-5.549H50.775V97.3H100.72Zm0,0" transform="translate(-39.676 -52.901)"/>
      <path id="Path_7" data-name="Path 7" class="cls-1" d="M76.305,128H66.594v5.549h4.162a6.937,6.937,0,0,1,0,13.874H66.594v16.648H5.549V128H4.162A4.168,4.168,0,0,0,0,132.162v37.459H80.468V132.162A4.168,4.168,0,0,0,76.305,128Zm0,0" transform="translate(0 -105.802)"/>
      <path id="Path_8" data-name="Path 8" class="cls-1" d="M0,385.387a4.168,4.168,0,0,0,4.162,4.162H76.305a4.168,4.168,0,0,0,4.162-4.162V384H0Zm0,0" transform="translate(0 -317.406)"/>
      <path id="Path_9" data-name="Path 9" class="cls-1" d="M405.549,180.162A4.168,4.168,0,0,0,401.387,176H400v8.324h1.387A4.167,4.167,0,0,0,405.549,180.162Zm0,0" transform="translate(-330.631 -145.478)"/>
      <path id="Path_10" data-name="Path 10" class="cls-1" d="M148.072,432H117.549v2.775H112v2.775h41.621v-2.775h-5.549Zm0,0" transform="translate(-92.577 -357.082)"/>
      <path id="Path_11" data-name="Path 11" class="cls-1" d="M144,183.091a.621.621,0,0,0,.4.577l7.925,2.971v-7.1l-7.925,2.972A.62.62,0,0,0,144,183.091Zm0,0" transform="translate(-119.027 -148.406)"/>
      <path id="Path_12" data-name="Path 12" class="cls-1" d="M208,208h24.973v2.775H208Zm0,0" transform="translate(-171.928 -171.928)"/>
    </g>
    <g id="Group_1" data-name="Group 1" transform="translate(238 197.5)">
      <path id="Path_15" data-name="Path 15" class="cls-1" d="M3.045-20.3H11.6a12.368,12.368,0,0,1,5.713,1.276,9.375,9.375,0,0,1,3.872,3.581,10.118,10.118,0,0,1,1.378,5.293,10.118,10.118,0,0,1-1.378,5.293,9.375,9.375,0,0,1-3.872,3.581A12.368,12.368,0,0,1,11.6,0H3.045ZM11.426-2.523a9.392,9.392,0,0,0,4.335-.957,6.918,6.918,0,0,0,2.885-2.683,7.717,7.717,0,0,0,1.015-3.988,7.717,7.717,0,0,0-1.015-3.988,6.918,6.918,0,0,0-2.885-2.683,9.392,9.392,0,0,0-4.335-.957H5.945V-2.523ZM40.484-7.6a7.978,7.978,0,0,1-.058.841H27.956a4.826,4.826,0,0,0,1.783,3.263,5.82,5.82,0,0,0,3.785,1.233,5.7,5.7,0,0,0,4.437-1.856L39.5-2.32A6.732,6.732,0,0,1,36.9-.464a9.034,9.034,0,0,1-3.465.638,9.077,9.077,0,0,1-4.321-1,7.136,7.136,0,0,1-2.915-2.8,8.023,8.023,0,0,1-1.029-4.06,8.148,8.148,0,0,1,1-4.031,7.167,7.167,0,0,1,2.755-2.8,7.848,7.848,0,0,1,3.959-1,7.689,7.689,0,0,1,3.929,1,7.026,7.026,0,0,1,2.7,2.8A8.525,8.525,0,0,1,40.484-7.6Zm-7.6-5.568a4.812,4.812,0,0,0-3.35,1.218,4.91,4.91,0,0,0-1.58,3.19h9.86a4.943,4.943,0,0,0-1.58-3.175A4.778,4.778,0,0,0,32.886-13.166Zm24.766-2.2L50.924,0H48.082L41.354-15.37h2.9L49.532-3.045,54.926-15.37ZM64.467.174a12.88,12.88,0,0,1-3.625-.508,7.96,7.96,0,0,1-2.726-1.291l1.16-2.2a8.326,8.326,0,0,0,2.465,1.16,10.143,10.143,0,0,0,2.929.435q3.654,0,3.654-2.088a1.352,1.352,0,0,0-.493-1.1A3.121,3.121,0,0,0,66.6-6.018q-.74-.188-2.1-.421a20.6,20.6,0,0,1-3.031-.667A4.671,4.671,0,0,1,59.45-8.381a3.551,3.551,0,0,1-.841-2.523,3.941,3.941,0,0,1,1.74-3.35,7.793,7.793,0,0,1,4.669-1.261,12.862,12.862,0,0,1,3.074.377,8.267,8.267,0,0,1,2.523,1.015l-1.189,2.2a7.994,7.994,0,0,0-4.437-1.218,5.129,5.129,0,0,0-2.7.58,1.75,1.75,0,0,0-.928,1.537,1.465,1.465,0,0,0,.522,1.189,3.3,3.3,0,0,0,1.291.638q.768.2,2.16.464a23.448,23.448,0,0,1,3,.682A4.482,4.482,0,0,1,70.3-6.815a3.433,3.433,0,0,1,.812,2.436,3.841,3.841,0,0,1-1.784,3.321A8.423,8.423,0,0,1,64.467.174Z" transform="translate(0 28)"/>
      <path id="Path_16" data-name="Path 16" class="cls-1" d="M19.8-19.6V0H17.5L5.74-14.616V0H2.94V-19.6h2.3L17-4.984V-19.6ZM31.64.168a8.047,8.047,0,0,1-3.976-.98,7.107,7.107,0,0,1-2.758-2.7,7.67,7.67,0,0,1-.994-3.906,7.67,7.67,0,0,1,.994-3.906,7.009,7.009,0,0,1,2.758-2.688,8.14,8.14,0,0,1,3.976-.966,8.06,8.06,0,0,1,3.962.966,7.034,7.034,0,0,1,2.744,2.688A7.67,7.67,0,0,1,39.34-7.42a7.67,7.67,0,0,1-.994,3.906A7.134,7.134,0,0,1,35.6-.812,7.968,7.968,0,0,1,31.64.168Zm0-2.352A5.011,5.011,0,0,0,34.2-2.842,4.644,4.644,0,0,0,35.98-4.69a5.645,5.645,0,0,0,.644-2.73,5.645,5.645,0,0,0-.644-2.73A4.549,4.549,0,0,0,34.2-11.984a5.1,5.1,0,0,0-2.562-.644,5.1,5.1,0,0,0-2.562.644,4.643,4.643,0,0,0-1.792,1.834,5.548,5.548,0,0,0-.658,2.73,5.548,5.548,0,0,0,.658,2.73,4.741,4.741,0,0,0,1.792,1.848A5.011,5.011,0,0,0,31.64-2.184ZM51.408-.868a4.01,4.01,0,0,1-1.456.77A6.082,6.082,0,0,1,48.16.168a4.759,4.759,0,0,1-3.472-1.2A4.6,4.6,0,0,1,43.456-4.48v-8.148h-2.52V-14.84h2.52v-3.248h2.688v3.248H50.4v2.212H46.144v8.036a2.607,2.607,0,0,0,.6,1.848,2.242,2.242,0,0,0,1.722.644,3.239,3.239,0,0,0,2.1-.7ZM67.564-7.336a7.7,7.7,0,0,1-.056.812H55.468a4.66,4.66,0,0,0,1.722,3.15,5.62,5.62,0,0,0,3.654,1.19,5.5,5.5,0,0,0,4.284-1.792L66.612-2.24A6.5,6.5,0,0,1,64.106-.448,8.722,8.722,0,0,1,60.76.168,8.764,8.764,0,0,1,56.588-.8a6.89,6.89,0,0,1-2.814-2.7,7.747,7.747,0,0,1-.994-3.92,7.867,7.867,0,0,1,.966-3.892,6.92,6.92,0,0,1,2.66-2.7,7.577,7.577,0,0,1,3.822-.966,7.424,7.424,0,0,1,3.794.966,6.784,6.784,0,0,1,2.6,2.7A8.231,8.231,0,0,1,67.564-7.336Zm-7.336-5.376a4.646,4.646,0,0,0-3.234,1.176,4.741,4.741,0,0,0-1.526,3.08h9.52a4.772,4.772,0,0,0-1.526-3.066A4.614,4.614,0,0,0,60.228-12.712ZM75.544.168a12.436,12.436,0,0,1-3.5-.49,7.685,7.685,0,0,1-2.632-1.246L70.532-3.7a8.039,8.039,0,0,0,2.38,1.12,9.793,9.793,0,0,0,2.828.42q3.528,0,3.528-2.016a1.306,1.306,0,0,0-.476-1.064A3.014,3.014,0,0,0,77.6-5.81q-.714-.182-2.03-.406a19.894,19.894,0,0,1-2.926-.644A4.51,4.51,0,0,1,70.7-8.092a3.429,3.429,0,0,1-.812-2.436,3.8,3.8,0,0,1,1.68-3.234,7.524,7.524,0,0,1,4.508-1.218,12.419,12.419,0,0,1,2.968.364,7.982,7.982,0,0,1,2.436.98l-1.148,2.128a7.719,7.719,0,0,0-4.284-1.176,4.952,4.952,0,0,0-2.6.56,1.69,1.69,0,0,0-.9,1.484,1.415,1.415,0,0,0,.5,1.148,3.187,3.187,0,0,0,1.246.616q.742.2,2.086.448a22.64,22.64,0,0,1,2.9.658,4.328,4.328,0,0,1,1.89,1.19,3.315,3.315,0,0,1,.784,2.352,3.709,3.709,0,0,1-1.722,3.206A8.133,8.133,0,0,1,75.544.168Z" transform="translate(28.536 58.98)"/>
    </g>
  </g>
</svg>
