<svg xmlns="http://www.w3.org/2000/svg" viewBox="0 0 250.974 319.936">
  <defs>
    <style>
      .cls-1 {
        fill: #fff;
      }
    </style>
  </defs>
  <g id="Group_2" data-name="Group 2" transform="translate(-139.93 -190.5)">
    <g id="web-design" transform="translate(172 190.5)">
      <path id="Path_1" data-name="Path 1" class="cls-1" d="M208,176h56.641v6.293H208Zm0,0" transform="translate(-126.186 -106.773)"/>
      <path id="Path_2" data-name="Path 2" class="cls-1" d="M80,96h25.174v12.587H80Zm0,0" transform="translate(-48.533 -58.24)"/>
      <path id="Path_3" data-name="Path 3" class="cls-1" d="M173.868,0H48V18.88H173.868ZM60.587,12.587H54.293V6.293h6.293Zm12.587,0H66.88V6.293h6.293Zm12.587,0H79.467V6.293H85.76Zm0,0" transform="translate(-29.12)"/>
      <path id="Path_4" data-name="Path 4" class="cls-1" d="M368,176h6.293v18.88H368Zm0,0" transform="translate(-223.252 -106.773)"/>
      <path id="Path_5" data-name="Path 5" class="cls-1" d="M200,96h25.174v12.587H200Zm0,0" transform="translate(-121.333 -58.24)"/>
      <path id="Path_6" data-name="Path 6" class="cls-1" d="M173.868,133.227H107.214l-22.76-8.534a7.688,7.688,0,0,1,0-14.4l22.76-8.537h66.654V64H48V164.694H173.868ZM101.494,70.293h37.76V95.467h-37.76Zm-47.2,0h37.76V95.467H54.293Zm0,31.467H76.32v6.293H54.293Zm0,12.587h18.88v6.293H54.293Zm0,12.587H76.32v6.293H54.293ZM154.988,158.4H54.293v-6.293H154.988Zm12.587,0h-6.293v-6.293h6.293Zm0-12.587H54.293v-6.293H167.574Zm0,0" transform="translate(-29.12 -38.826)"/>
      <path id="Path_7" data-name="Path 7" class="cls-1" d="M173.068,128H151.041v12.587h9.44a15.733,15.733,0,1,1,0,31.467h-9.44v37.76H12.587V128H9.44A9.452,9.452,0,0,0,0,137.44V222.4H182.508V137.44A9.452,9.452,0,0,0,173.068,128Zm0,0" transform="translate(0 -77.653)"/>
      <path id="Path_8" data-name="Path 8" class="cls-1" d="M0,387.147a9.452,9.452,0,0,0,9.44,9.44H173.068a9.452,9.452,0,0,0,9.44-9.44V384H0Zm0,0" transform="translate(0 -232.959)"/>
      <path id="Path_9" data-name="Path 9" class="cls-1" d="M412.587,185.44a9.452,9.452,0,0,0-9.44-9.44H400v18.88h3.147A9.45,9.45,0,0,0,412.587,185.44Zm0,0" transform="translate(-242.665 -106.773)"/>
      <path id="Path_10" data-name="Path 10" class="cls-1" d="M193.814,432H124.587v6.293H112v6.293h94.4v-6.293H193.814Zm0,0" transform="translate(-67.946 -262.078)"/>
      <path id="Path_11" data-name="Path 11" class="cls-1" d="M144,187.589a1.408,1.408,0,0,0,.906,1.309l17.974,6.737V179.543l-17.974,6.741a1.407,1.407,0,0,0-.906,1.306Zm0,0" transform="translate(-87.359 -108.922)"/>
      <path id="Path_12" data-name="Path 12" class="cls-1" d="M208,208h56.641v6.293H208Zm0,0" transform="translate(-126.186 -126.186)"/>
    </g>
    <g id="Group_1" data-name="Group 1" transform="translate(133 373.507)">
      <path id="Path_13" data-name="Path 13" class="cls-1" d="M6.93-46.2H26.4a28.149,28.149,0,0,1,13,2.9,21.336,21.336,0,0,1,8.811,8.151A23.028,23.028,0,0,1,51.348-23.1a23.028,23.028,0,0,1-3.135,12.045A21.336,21.336,0,0,1,39.4-2.9,28.149,28.149,0,0,1,26.4,0H6.93ZM26-5.742A21.375,21.375,0,0,0,35.871-7.92a15.745,15.745,0,0,0,6.567-6.105,17.563,17.563,0,0,0,2.31-9.075,17.563,17.563,0,0,0-2.31-9.075,15.745,15.745,0,0,0-6.567-6.105A21.375,21.375,0,0,0,26-40.458H13.53V-5.742Zm66.132-11.55A18.158,18.158,0,0,1,92-15.378H63.624a10.984,10.984,0,0,0,4.059,7.425A13.246,13.246,0,0,0,76.3-5.148a12.975,12.975,0,0,0,10.1-4.224l3.5,4.092a15.322,15.322,0,0,1-5.907,4.224A20.56,20.56,0,0,1,76.1.4a20.657,20.657,0,0,1-9.834-2.277A16.24,16.24,0,0,1,59.631-8.25a18.26,18.26,0,0,1-2.343-9.24,18.543,18.543,0,0,1,2.277-9.174,16.312,16.312,0,0,1,6.27-6.369,17.861,17.861,0,0,1,9.009-2.277,17.5,17.5,0,0,1,8.943,2.277,15.99,15.99,0,0,1,6.138,6.369A19.4,19.4,0,0,1,92.136-17.292ZM74.844-29.964a10.951,10.951,0,0,0-7.623,2.772,11.175,11.175,0,0,0-3.6,7.26h22.44a11.249,11.249,0,0,0-3.6-7.227A10.875,10.875,0,0,0,74.844-29.964Zm56.364-5.016L115.9,0h-6.468L94.116-34.98h6.6L112.728-6.93,125-34.98ZM146.718.4a29.314,29.314,0,0,1-8.25-1.155,18.116,18.116,0,0,1-6.2-2.937l2.64-5.016a18.949,18.949,0,0,0,5.61,2.64,23.084,23.084,0,0,0,6.666.99q8.316,0,8.316-4.752a3.078,3.078,0,0,0-1.122-2.508,7.1,7.1,0,0,0-2.8-1.353q-1.683-.429-4.785-.957a46.892,46.892,0,0,1-6.9-1.518,10.63,10.63,0,0,1-4.587-2.9,8.082,8.082,0,0,1-1.914-5.742,8.968,8.968,0,0,1,3.96-7.623q3.96-2.871,10.626-2.871a29.273,29.273,0,0,1,7,.858,18.814,18.814,0,0,1,5.742,2.31L158-27.126a18.194,18.194,0,0,0-10.1-2.772,11.673,11.673,0,0,0-6.138,1.32,3.983,3.983,0,0,0-2.112,3.5,3.335,3.335,0,0,0,1.188,2.706,7.512,7.512,0,0,0,2.937,1.452q1.749.462,4.917,1.056a53.364,53.364,0,0,1,6.831,1.551,10.2,10.2,0,0,1,4.455,2.8,7.814,7.814,0,0,1,1.848,5.544,8.742,8.742,0,0,1-4.059,7.557Q153.714.4,146.718.4Z" transform="translate(0 64)"/>
      <path id="Path_14" data-name="Path 14" class="cls-1" d="M46.662-46.2V0H41.25L13.53-34.452V0H6.93V-46.2h5.412l27.72,34.452V-46.2ZM74.58.4a18.968,18.968,0,0,1-9.372-2.31,16.752,16.752,0,0,1-6.5-6.369,18.08,18.08,0,0,1-2.343-9.207A18.08,18.08,0,0,1,58.707-26.7a16.521,16.521,0,0,1,6.5-6.336A19.187,19.187,0,0,1,74.58-35.31a19,19,0,0,1,9.339,2.277A16.581,16.581,0,0,1,90.387-26.7,18.08,18.08,0,0,1,92.73-17.49a18.08,18.08,0,0,1-2.343,9.207,16.815,16.815,0,0,1-6.468,6.369A18.783,18.783,0,0,1,74.58.4Zm0-5.544A11.811,11.811,0,0,0,80.619-6.7a10.948,10.948,0,0,0,4.191-4.356,13.306,13.306,0,0,0,1.518-6.435,13.306,13.306,0,0,0-1.518-6.435,10.722,10.722,0,0,0-4.191-4.323,12.012,12.012,0,0,0-6.039-1.518,12.012,12.012,0,0,0-6.039,1.518,10.943,10.943,0,0,0-4.224,4.323,13.077,13.077,0,0,0-1.551,6.435,13.077,13.077,0,0,0,1.551,6.435A11.176,11.176,0,0,0,68.541-6.7,11.811,11.811,0,0,0,74.58-5.148Zm46.6,3.1a9.453,9.453,0,0,1-3.432,1.815A14.335,14.335,0,0,1,113.52.4q-5.28,0-8.184-2.838t-2.9-8.118V-29.766h-5.94V-34.98h5.94v-7.656h6.336v7.656H118.8v5.214H108.768v18.942a6.145,6.145,0,0,0,1.419,4.356,5.285,5.285,0,0,0,4.059,1.518A7.636,7.636,0,0,0,119.2-6.6Zm38.082-15.246a18.159,18.159,0,0,1-.132,1.914h-28.38a10.984,10.984,0,0,0,4.059,7.425,13.246,13.246,0,0,0,8.613,2.805,12.975,12.975,0,0,0,10.1-4.224l3.5,4.092a15.322,15.322,0,0,1-5.907,4.224A20.56,20.56,0,0,1,143.22.4a20.657,20.657,0,0,1-9.834-2.277,16.24,16.24,0,0,1-6.633-6.369,18.26,18.26,0,0,1-2.343-9.24,18.543,18.543,0,0,1,2.277-9.174,16.312,16.312,0,0,1,6.27-6.369,17.861,17.861,0,0,1,9.009-2.277,17.5,17.5,0,0,1,8.943,2.277,15.99,15.99,0,0,1,6.138,6.369A19.4,19.4,0,0,1,159.258-17.292ZM141.966-29.964a10.951,10.951,0,0,0-7.623,2.772,11.175,11.175,0,0,0-3.6,7.26h22.44a11.249,11.249,0,0,0-3.6-7.227A10.875,10.875,0,0,0,141.966-29.964ZM178.068.4a29.314,29.314,0,0,1-8.25-1.155,18.116,18.116,0,0,1-6.2-2.937l2.64-5.016a18.949,18.949,0,0,0,5.61,2.64,23.084,23.084,0,0,0,6.666.99q8.316,0,8.316-4.752a3.078,3.078,0,0,0-1.122-2.508,7.1,7.1,0,0,0-2.8-1.353q-1.683-.429-4.785-.957a46.892,46.892,0,0,1-6.9-1.518,10.63,10.63,0,0,1-4.587-2.9,8.082,8.082,0,0,1-1.914-5.742,8.968,8.968,0,0,1,3.96-7.623q3.96-2.871,10.626-2.871a29.273,29.273,0,0,1,7,.858,18.814,18.814,0,0,1,5.742,2.31l-2.706,5.016a18.194,18.194,0,0,0-10.1-2.772,11.673,11.673,0,0,0-6.138,1.32,3.983,3.983,0,0,0-2.112,3.5,3.335,3.335,0,0,0,1.188,2.706,7.512,7.512,0,0,0,2.937,1.452q1.749.462,4.917,1.056a53.364,53.364,0,0,1,6.831,1.551,10.2,10.2,0,0,1,4.455,2.8,7.814,7.814,0,0,1,1.848,5.544,8.742,8.742,0,0,1-4.059,7.557Q185.064.4,178.068.4Z" transform="translate(64.722 136.533)"/>
    </g>
  </g>
</svg>
